<svg width="160" height="160" viewBox="0 0 160 160" fill="none" xmlns="http://www.w3.org/2000/svg">
<circle cx="80" cy="80" r="80" fill="#8D629C"/>
<g filter="url(#filter0_b_1_19)">
<path d="M52.9463 27.3994H56.7549V22.5947H59.6406V27.3994H64.7676V30.2852H59.6406V40.1143H64.7676V43H59.6406C59.25 43 58.8789 42.9268 58.5273 42.7803C58.1758 42.624 57.8682 42.4189 57.6045 42.165C57.3408 41.9014 57.1309 41.5938 56.9746 41.2422C56.8281 40.8906 56.7549 40.5146 56.7549 40.1143V30.2852H52.9463V27.3994ZM82.7852 36.6719H72.458V40.1143H82.7852V43H72.458C72.0674 43 71.6963 42.9268 71.3447 42.7803C70.9932 42.624 70.6855 42.4189 70.4219 42.165C70.168 41.9014 69.9629 41.5938 69.8066 41.2422C69.6602 40.8906 69.5869 40.5146 69.5869 40.1143V30.2852C69.5869 29.8848 69.6602 29.5088 69.8066 29.1572C69.9629 28.8057 70.168 28.5029 70.4219 28.249C70.6855 27.9854 70.9932 27.7803 71.3447 27.6338C71.6963 27.4775 72.0674 27.3994 72.458 27.3994H79.8994C80.2998 27.3994 80.6758 27.4775 81.0273 27.6338C81.3789 27.7803 81.6816 27.9854 81.9355 28.249C82.1992 28.5029 82.4043 28.8057 82.5508 29.1572C82.707 29.5088 82.7852 29.8848 82.7852 30.2852V36.6719ZM72.458 30.2852V33.7861H79.8994V30.2852H72.458ZM90.4756 21.3936V43H87.6045V21.3936H90.4756ZM98.1514 21.3936V43H95.2803V21.3936H98.1514ZM45.3291 78.2988L48.5957 70.5938L42.4727 56.3994H45.5049L50.0605 67.1367L54.6162 56.3994H57.6484L48.2002 78.2988H45.3291ZM78.6396 56.3994H81.5107V69.1143H89.5527V56.3994H92.4385V72H89.5527V69.3633C89.5234 69.7246 89.4258 70.0664 89.2598 70.3887C89.0938 70.7109 88.8789 70.9941 88.6152 71.2383C88.3613 71.4727 88.0684 71.6582 87.7363 71.7949C87.4043 71.9316 87.0527 72 86.6816 72H81.5107C81.1201 72 80.749 71.9268 80.3975 71.7803C80.0459 71.624 79.7383 71.4189 79.4746 71.165C79.2207 70.9014 79.0156 70.5938 78.8594 70.2422C78.7129 69.8906 78.6396 69.5146 78.6396 69.1143V56.3994ZM100.114 59.2852V72H97.2432V56.3994H100.114V59.1533C100.134 58.7725 100.222 58.416 100.378 58.084C100.534 57.7422 100.739 57.4492 100.993 57.2051C101.257 56.9512 101.56 56.7559 101.901 56.6191C102.243 56.4727 102.609 56.3994 103 56.3994H106.062C106.462 56.3994 106.833 56.4775 107.175 56.6338C107.526 56.7803 107.834 56.9854 108.098 57.249C108.361 57.5029 108.566 57.8057 108.713 58.1572C108.869 58.5088 108.947 58.8848 108.947 59.2852V61.9219H106.062V59.2852H100.114ZM67.1846 101L59.7432 94.335V101H56.8721V79.3936H59.7432V91.5518L66.584 85.3994H70.6416L62.2627 92.9287L71.2422 101H67.1846ZM76.3691 85.3994V101H73.4834V85.3994H76.3691ZM73.3369 79.3936H76.5156V82.3965H73.3369V79.3936ZM81.335 88.2852C81.335 87.8848 81.4082 87.5088 81.5547 87.1572C81.7109 86.8057 81.916 86.5029 82.1699 86.249C82.4336 85.9854 82.7412 85.7803 83.0928 85.6338C83.4443 85.4775 83.8154 85.3994 84.2061 85.3994H92.248V79.3936H95.1338V101H92.248V98.3633C92.2188 98.7246 92.1211 99.0664 91.9551 99.3887C91.7891 99.7109 91.5742 99.9941 91.3105 100.238C91.0566 100.473 90.7637 100.658 90.4316 100.795C90.0996 100.932 89.748 101 89.377 101H84.2061C83.8154 101 83.4443 100.927 83.0928 100.78C82.7412 100.624 82.4336 100.419 82.1699 100.165C81.916 99.9014 81.7109 99.5938 81.5547 99.2422C81.4082 98.8906 81.335 98.5146 81.335 98.1143V88.2852ZM84.2061 98.1143H92.248V88.2852H84.2061V98.1143ZM28.293 123.188C28.293 122.788 28.3662 122.417 28.5127 122.075C28.6689 121.724 28.874 121.416 29.1279 121.152C29.3916 120.889 29.6992 120.684 30.0508 120.537C30.4023 120.381 30.7734 120.303 31.1641 120.303H38.6055V117.285H29.1865V114.399H38.6055C39.0059 114.399 39.3818 114.478 39.7334 114.634C40.085 114.78 40.3877 114.985 40.6416 115.249C40.9053 115.503 41.1104 115.806 41.2568 116.157C41.4131 116.509 41.4912 116.885 41.4912 117.285V130H38.6055V127.363C38.5762 127.725 38.4785 128.066 38.3125 128.389C38.1465 128.711 37.9316 128.994 37.668 129.238C37.4141 129.473 37.1211 129.658 36.7891 129.795C36.457 129.932 36.1055 130 35.7344 130H31.1641C30.7734 130 30.4023 129.927 30.0508 129.78C29.6992 129.624 29.3916 129.419 29.1279 129.165C28.874 128.901 28.6689 128.594 28.5127 128.242C28.3662 127.891 28.293 127.515 28.293 127.114V123.188ZM31.1641 127.114H38.6055V123.188H31.1641V127.114ZM64.7236 127.114V123.496H57.8828C57.4824 123.496 57.1064 123.423 56.7549 123.276C56.4033 123.12 56.0957 122.915 55.832 122.661C55.5781 122.397 55.373 122.09 55.2168 121.738C55.0703 121.387 54.9971 121.011 54.9971 120.61V117.285C54.9971 116.885 55.0703 116.509 55.2168 116.157C55.373 115.806 55.5781 115.503 55.832 115.249C56.0957 114.985 56.4033 114.78 56.7549 114.634C57.1064 114.478 57.4824 114.399 57.8828 114.399H67.0088V117.285H57.8828V120.61H64.7236C65.124 120.61 65.4951 120.688 65.8369 120.845C66.1885 120.991 66.4961 121.196 66.7598 121.46C67.0234 121.714 67.2285 122.017 67.375 122.368C67.5312 122.72 67.6094 123.096 67.6094 123.496V127.114C67.6094 127.515 67.5312 127.891 67.375 128.242C67.2285 128.594 67.0234 128.901 66.7598 129.165C66.4961 129.419 66.1885 129.624 65.8369 129.78C65.4951 129.927 65.124 130 64.7236 130H54.9971V127.114H64.7236ZM71.2129 114.399H75.0215V109.595H77.9072V114.399H83.0342V117.285H77.9072V127.114H83.0342V130H77.9072C77.5166 130 77.1455 129.927 76.7939 129.78C76.4424 129.624 76.1348 129.419 75.8711 129.165C75.6074 128.901 75.3975 128.594 75.2412 128.242C75.0947 127.891 75.0215 127.515 75.0215 127.114V117.285H71.2129V114.399ZM108.713 117.285V130H105.842V114.399H108.713V117.153C108.732 116.772 108.82 116.416 108.977 116.084C109.133 115.742 109.338 115.449 109.592 115.205C109.855 114.951 110.158 114.756 110.5 114.619C110.842 114.473 111.208 114.399 111.599 114.399H114.66C115.061 114.399 115.432 114.478 115.773 114.634C116.125 114.78 116.433 114.985 116.696 115.249C116.96 115.503 117.165 115.806 117.312 116.157C117.468 116.509 117.546 116.885 117.546 117.285V119.922H114.66V117.285H108.713ZM122.189 136.299L125.456 128.594L119.333 114.399H122.365L126.921 125.137L131.477 114.399H134.509L125.061 136.299H122.189Z" fill="#EDC6C6"/>
</g>
<path d="M93.0843 114.044C92.5725 114.136 91.9661 114.342 91.4695 114.595C89.6079 115.547 88.3647 117.369 88.054 119.597C87.9443 120.396 88.0022 121.236 88.2246 122.082C88.3983 122.742 88.6024 123.267 88.965 123.992C89.6505 125.362 90.982 127.246 92.0393 128.345C92.4811 128.808 93.3799 129.445 93.584 129.445C93.6115 129.445 93.645 129.471 93.6633 129.501C93.6968 129.565 93.5932 129.763 93.2641 130.252C93.0478 130.576 93.0386 130.624 93.2001 130.624C93.2641 130.624 93.3311 130.638 93.3525 130.659C93.3829 130.688 93.4987 130.715 93.8247 130.762C93.9375 130.777 93.9405 130.783 93.9192 130.856C93.8857 130.96 93.8674 142.861 93.9009 142.982C93.9283 143.088 94.0075 143.121 94.0472 143.041C94.0624 143.012 94.0807 140.312 94.0898 136.955C94.099 132.99 94.1142 130.912 94.1355 130.892C94.1568 130.874 94.2574 130.883 94.4341 130.924L94.7053 130.983L94.8241 130.871C94.8911 130.806 95.0435 130.709 95.1654 130.65C95.3177 130.576 95.3878 130.526 95.3939 130.485C95.4 130.447 95.3268 130.332 95.1836 130.164C94.9003 129.822 94.7297 129.577 94.7297 129.512C94.7297 129.477 94.7845 129.436 94.9033 129.386C95.5218 129.129 96.3628 128.342 97.2586 127.19C97.9868 126.25 98.7485 125.077 99.2268 124.157C99.9642 122.742 100.226 121.787 100.226 120.543C100.223 119.412 100.113 118.731 99.7936 117.905C99.6443 117.516 99.3457 116.953 99.108 116.608C98.1757 115.256 96.6736 114.283 95.1532 114.044C94.7784 113.985 93.4195 113.985 93.0843 114.044Z" fill="#ED8D8D"/>
<path d="M66.0843 56.0442C65.5725 56.1356 64.9661 56.3419 64.4695 56.5954C62.6079 57.5474 61.3647 59.3689 61.054 61.5972C60.9443 62.396 61.0022 63.236 61.2246 64.0819C61.3983 64.7421 61.6024 65.2668 61.965 65.9918C62.6505 67.3624 63.982 69.2458 65.0393 70.3452C65.4811 70.808 66.3799 71.4446 66.584 71.4446C66.6115 71.4446 66.645 71.4712 66.6633 71.5006C66.6968 71.5655 66.5932 71.763 66.2641 72.2522C66.0478 72.5764 66.0386 72.6236 66.2001 72.6236C66.2641 72.6236 66.3311 72.6383 66.3525 72.659C66.3829 72.6885 66.4987 72.715 66.8247 72.7621C66.9375 72.7769 66.9405 72.7828 66.9192 72.8565C66.8857 72.9596 66.8674 84.8614 66.9009 84.9823C66.9283 85.0884 67.0075 85.1208 67.0472 85.0412C67.0624 85.0117 67.0807 82.3119 67.0898 78.9547C67.099 74.9904 67.1142 72.9125 67.1355 72.8918C67.1568 72.8741 67.2574 72.883 67.4341 72.9242L67.7053 72.9832L67.8241 72.8712C67.8911 72.8063 68.0435 72.7091 68.1654 72.6501C68.3177 72.5764 68.3878 72.5263 68.3939 72.4851C68.4 72.4468 68.3268 72.3318 68.1836 72.1638C67.9003 71.8219 67.7297 71.5773 67.7297 71.5124C67.7297 71.477 67.7845 71.4358 67.9033 71.3857C68.5218 71.1293 69.3628 70.3423 70.2586 69.1898C70.9868 68.2496 71.7485 67.0765 72.2268 66.1569C72.9642 64.7421 73.2262 63.7872 73.2262 62.5433C73.2232 61.4115 73.1135 60.7307 72.7936 59.9054C72.6443 59.5163 72.3457 58.9533 72.108 58.6085C71.1757 57.2556 69.6736 56.283 68.1532 56.0442C67.7784 55.9853 66.4195 55.9853 66.0843 56.0442Z" fill="#ED8D8D"/>
<defs>
<filter id="filter0_b_1_19" x="24.293" y="17.3936" width="114.216" height="122.905" filterUnits="userSpaceOnUse" color-interpolation-filters="sRGB">
<feFlood flood-opacity="0" result="BackgroundImageFix"/>
<feGaussianBlur in="BackgroundImageFix" stdDeviation="2"/>
<feComposite in2="SourceAlpha" operator="in" result="effect1_backgroundBlur_1_19"/>
<feBlend mode="normal" in="SourceGraphic" in2="effect1_backgroundBlur_1_19" result="shape"/>
</filter>
</defs>
</svg>
